<svg version="1.1" xmlns="http://www.w3.org/2000/svg" xmlns:xlink="http://www.w3.org/1999/xlink">
    <symbol id="logo-icon" viewBox="0 0 190 45">
        <g>
            <path d="M48.1605 37.5284H51.6397C53.6897 37.5284 55.4437 39.0249 55.4437 41.2072C55.4437 43.3896 53.5832 44.906 51.6397 44.906H48.1605V37.5284ZM51.6397 38.9399H49.633V43.4927H51.6397C52.9751 43.4927 53.973 42.5445 53.973 41.2054C53.973 39.8664 52.9841 38.9399 51.6397 38.9399Z" fill="#20B2AA"/>
            <path d="M58.9319 37.5284H65.0061V38.8874H60.4027V40.5323H64.8383V41.8912H60.4027V43.5361H65.0061V44.906H58.9319V37.5284Z" fill="#20B2AA"/>
            <path d="M70.3043 44.906H68.8336V37.5284H70.0102L74.583 42.4178V37.5284H76.0537V44.906H74.8663L70.3043 39.984V44.906Z" fill="#20B2AA"/>
            <path d="M79.394 38.8874V37.5284H86.0582V38.8874H83.4723V44.906H82.0016V38.8874H79.394Z" fill="#20B2AA"/>
            <path d="M91.6055 37.5284H93.2458L96.956 44.906H95.3157L94.4441 43.167H90.4181L89.5465 44.906H87.9169L91.6055 37.5284ZM93.7601 41.8171L92.4248 39.1606L91.0894 41.8171H93.7601Z" fill="#20B2AA"/>
            <path d="M99.9282 37.5284H101.399V43.4927H105.771V44.9042H99.9282V37.5266V37.5284Z" fill="#20B2AA"/>
            <path d="M114.706 37.5284H116.176V43.4927H120.549V44.9042H114.706V37.5266V37.5284Z" fill="#20B2AA"/>
            <path d="M127.222 37.5284H128.863L132.573 44.906H130.932L130.061 43.167H126.035L125.163 44.906H123.534L127.222 37.5284ZM129.377 41.8171L128.042 39.1606L126.706 41.8171H129.377Z" fill="#20B2AA"/>
            <path d="M139.266 37.5284C140.791 37.5284 141.819 38.2866 141.819 39.4574C141.819 40.1848 141.368 40.7856 140.674 41.1222C141.588 41.428 142.155 42.0396 142.155 42.8503C142.155 44.0826 140.926 44.906 139.264 44.906H135.543V37.5284H139.266ZM139.266 38.7933H137.018V40.563H139.266C139.887 40.563 140.412 40.1939 140.412 39.689C140.412 39.1516 139.928 38.7933 139.266 38.7933ZM139.266 41.7863H137.018V43.6302H139.266C140.118 43.6302 140.674 43.2828 140.674 42.7128C140.674 42.112 140.148 41.7863 139.266 41.7863Z" fill="#20B2AA"/>
            <path d="M37.3475 40.8616H0.00732422V41.6922H37.3475V40.8616Z" fill="#20B2AA"/>
            <path d="M189.965 40.8616H152.625V41.6922H189.965V40.8616Z" fill="#20B2AA"/>
            <path d="M9.7916 19.2663H4.15412V25.3356H0V4.50946H10.6812C15.1313 4.50946 18.8108 7.45541 18.8108 11.8888C18.8108 14.804 16.9124 17.2451 14.3301 18.4647L19.5525 25.3374H14.3896L9.78979 19.2682L9.7916 19.2663ZM10.6812 8.34752H4.15412V15.3704H10.6812C12.9658 15.3704 14.6567 13.8522 14.6567 11.8888C14.6567 9.92545 12.9947 8.34752 10.6812 8.34752Z" fill="#0F1A1D"/>
            <path d="M21.3932 4.50946H38.5438V8.34752H25.5473V12.989H38.0692V16.8271H25.5473V21.4686H38.5438V25.3374H21.3932V4.50946Z" fill="#0F1A1D"/>
            <path d="M51.6287 25.7825C46.0508 25.7825 41.718 23.0447 41.4221 18.9388H45.7549C46.2006 20.9329 48.5447 22.2123 51.571 22.2123C54.3897 22.2123 56.3784 21.0216 56.3784 19.4147C56.3784 14.4457 41.691 19.5034 41.691 9.98335C41.691 6.32444 45.5491 4.0625 50.6525 4.0625C56.0535 4.0625 59.8504 6.65197 60.177 10.4303H55.8749C55.5194 8.82343 53.3232 7.51512 50.6525 7.51512C47.7453 7.51512 45.8451 8.61533 45.8451 10.1046C45.8451 14.7171 60.5325 9.89649 60.5325 19.536C60.5325 22.9868 57.1796 25.7844 51.6305 25.7844L51.6287 25.7825Z" fill="#0F1A1D"/>
            <path d="M63.4956 4.50946H74.1191C78.5692 4.50946 82.3082 7.45541 82.3082 11.8888C82.3082 16.0833 78.3616 19.2682 74.1191 19.2682H67.6497V25.3374H63.4956V4.50946ZM74.1191 8.34752H67.6497V15.3704H74.1191C76.4037 15.3704 78.1541 13.8522 78.1541 11.8888C78.1541 9.92545 76.4325 8.34752 74.1191 8.34752Z" fill="#0F1A1D"/>
            <path d="M85.2154 4.50946H102.366V8.34752H89.3695V12.989H101.891V16.8271H89.3695V21.4686H102.366V25.3374H85.2154V4.50946Z" fill="#0F1A1D"/>
            <path d="M116.431 21.7961C119.428 21.7961 121.772 20.3973 122.929 18.1354H127.32C126.044 22.8076 121.771 25.7825 116.429 25.7825C109.931 25.7825 105.035 21.141 105.035 14.9524C105.035 8.76371 109.902 4.0625 116.429 4.0625C121.771 4.0625 126.013 7.0374 127.32 11.7097H122.929C121.801 9.41877 119.457 8.05075 116.431 8.05075C112.188 8.05075 109.191 10.8483 109.191 14.9542C109.191 19.0601 112.217 21.7979 116.431 21.7979V21.7961Z" fill="#0F1A1D"/>
            <path d="M136.31 8.34752H128.951V4.50946H147.764V8.34752H140.464V25.3374H136.31V8.34752Z" fill="#0F1A1D"/>
            <path d="M182.274 16.1629V0H188.341V16.1629C188.341 24.5484 182.621 30.9361 174.215 30.9361C165.809 30.9361 160.089 24.5484 160.089 16.1629V0H166.156V16.1629C166.156 21.3328 169.579 25.113 174.215 25.113C178.851 25.113 182.274 21.4631 182.274 16.1629Z" fill="#20B2AA"/>
        </g>
    </symbol>

    <symbol id="white-logo-icon" viewBox="0 0 128 39">
        <g>
            <path d="M31.6284 33.6438H33.9133C35.2596 33.6438 36.4116 34.6239 36.4116 36.0531C36.4116 37.4824 35.1897 38.4755 33.9133 38.4755H31.6284V33.6438ZM33.9133 34.5694H32.5954V37.5511H33.9133C34.7903 37.5511 35.4457 36.9301 35.4457 36.0531C35.4457 35.1761 34.7962 34.5694 33.9133 34.5694Z" fill="white"/>
            <path d="M38.7024 33.6438H42.6916V34.5338H39.6683V35.6111H42.5813V36.5011H39.6683V37.5772H42.6916V38.4744H38.7024V33.6426V33.6438Z" fill="white"/>
            <path d="M46.1711 38.4767H45.2052V33.645H45.9779L48.981 36.8484V33.645H49.9469V38.4767H49.1671L46.1711 35.2532V38.4767Z" fill="white"/>
            <path d="M52.1406 34.535V33.645H56.5173V34.535H54.819V38.4767H53.8531V34.535H52.1406Z" fill="white"/>
            <path d="M60.1604 33.6438H61.2376L63.6743 38.4755H62.597L62.0246 37.3366H59.3805L58.8081 38.4755H57.738L60.1604 33.6438ZM61.5754 36.4537L60.6984 34.7139L59.8214 36.4537H61.5754Z" fill="white"/>
            <path d="M65.6262 33.6438H66.5921V37.5511H69.4636V38.4755H65.6262V33.6438Z" fill="white"/>
            <path d="M75.3312 33.6438H76.2971V37.5511H79.1686V38.4755H75.3312V33.6438Z" fill="white"/>
            <path d="M83.5513 33.6438H84.6285L87.0652 38.4755H85.9879L85.4155 37.3366H82.7714L82.199 38.4755H81.1289L83.5513 33.6438ZM84.9663 36.4537L84.0893 34.7139L83.2123 36.4537H84.9663Z" fill="white"/>
            <path d="M91.4608 33.6438C92.4622 33.6438 93.1378 34.1403 93.1378 34.9071C93.1378 35.3835 92.8415 35.777 92.3852 35.9974C92.9861 36.1977 93.3582 36.5983 93.3582 37.1292C93.3582 37.9363 92.5511 38.4755 91.4596 38.4755H89.0159V33.6438H91.4608ZM91.4608 34.4722H89.9841V35.6324H91.4608C91.8685 35.6324 92.2134 35.3906 92.2134 35.06C92.2134 34.708 91.8957 34.4734 91.4608 34.4734V34.4722ZM91.4608 36.4336H89.9841V37.6412H91.4608C92.0202 37.6412 92.3852 37.4137 92.3852 37.0403C92.3852 36.6469 92.0403 36.4324 91.4608 36.4324V36.4336Z" fill="white"/>
            <path d="M24.5271 35.828H0.00439453V36.3719H24.5271V35.828Z" fill="white"/>
            <path d="M124.757 35.828H100.234V36.3719H124.757V35.828Z" fill="white"/>
            <path d="M107.776 8.66203C108.037 8.66203 108.25 8.8752 108.25 9.13575V16.3435C108.25 16.3435 108.206 19.5044 108.666 22.0057C109.202 24.6811 110.165 26.4256 111.558 26.409C113.416 26.409 113.048 20.7575 114.471 20.7575C115.894 20.7575 116.275 24.1351 116.275 25.5824C116.275 25.9033 116.281 26.5701 115.709 27.4654C115.433 27.8977 115.077 28.2743 114.674 28.5929C113.87 29.2289 113.249 29.3722 112.807 29.3722C112.264 29.3722 110.16 29.6114 107.128 26.9727C104.095 24.3341 104.054 19.9545 104.054 19.9545V9.12628C104.054 8.86454 104.268 8.65137 104.53 8.65255L107.776 8.66203ZM112.148 9.12509V11.6489C112.148 12.2612 112.473 12.8332 113.011 13.1293C113.439 13.3649 113.97 13.5675 114.472 13.5106C115.501 13.3934 117.148 12.845 117.333 12.7823C117.346 12.7775 117.359 12.774 117.373 12.7704C117.614 12.71 119.66 12.2529 120.264 13.9358C120.906 15.7253 120.862 18.2396 120.744 19.7993C120.695 20.4626 120.371 22.5233 119.606 24.5034C118.484 27.4074 115.852 29.2016 115.944 29.3734C116.037 29.5451 120.701 28.4662 122.492 26.4102C122.55 26.3427 122.607 26.2764 122.662 26.2089C124.064 24.5094 124.794 22.3539 124.794 20.1511V9.19378C124.794 8.89415 124.551 8.65137 124.251 8.65137H118.829C118.675 8.65137 118.528 8.7165 118.424 8.83138C118.162 9.12391 117.625 9.66988 117.268 9.66277C116.911 9.65567 116.453 9.14523 116.213 8.8527C116.11 8.72598 115.955 8.65137 115.791 8.65137H112.624C112.362 8.65137 112.15 8.86336 112.15 9.12509H112.148Z" fill="white"/>
            <path d="M127.963 0.00157447C127.926 -0.020943 127.329 0.203046 126.487 0.354743C124.863 0.64747 122.545 0.997083 120.564 2.76767C118.909 4.24789 118.643 5.70323 118.385 7.02109C118.229 7.81869 117.89 8.65894 118.02 8.62813C118.15 8.59732 118.238 7.96801 119.478 7.64921C121.307 7.17753 122.493 8.34844 125.819 5.67479C128.072 3.86391 128.073 0.0679417 127.964 0.00157447H127.963ZM123.409 4.20878C123.104 4.41025 122.413 4.83216 121.853 5.22681C120.575 6.12395 119.094 7.32093 118.972 7.32093C118.796 7.32093 119.437 6.41668 120.638 5.51242C121.838 4.60936 124.501 3.22868 124.742 3.22868C124.847 3.33416 124.43 3.53089 123.409 4.2076V4.20878Z" fill="white"/>
            <path d="M6.43051 21.6848H2.72817V25.6597H0V12.0188H7.01478C9.93731 12.0188 12.3538 13.9482 12.3538 16.8518C12.3538 18.761 11.107 20.3598 9.41111 21.1586L12.8409 25.6597H9.45022L6.42933 21.6848H6.43051ZM7.01478 14.5337H2.72817V19.1332H7.01478C8.51515 19.1332 9.62562 18.1388 9.62562 16.853C9.62562 15.5671 8.53411 14.5337 7.01478 14.5337Z" fill="white"/>
            <path d="M14.0497 12.02H25.3132V14.5337H16.7779V17.5735H25.0015V20.0872H16.7779V23.1271H25.3132V25.6609H14.0497V12.02Z" fill="white"/>
            <path d="M33.9065 25.9524C30.2433 25.9524 27.3978 24.1593 27.2035 21.4702H30.049C30.3417 22.7763 31.8812 23.6141 33.8686 23.6141C35.7198 23.6141 37.0258 22.8343 37.0258 21.7819C37.0258 18.5276 27.38 21.84 27.38 15.605C27.38 13.2087 29.9138 11.7273 33.2654 11.7273C36.8125 11.7273 39.306 13.4232 39.5205 15.8978H36.6952C36.4617 14.8454 35.0194 13.9885 33.2654 13.9885C31.3561 13.9885 30.1082 14.7091 30.1082 15.6833C30.1082 18.7042 39.754 15.547 39.754 21.8601C39.754 24.1202 37.552 25.9524 33.9077 25.9524H33.9065Z" fill="white"/>
            <path d="M41.7 12.02H48.6768C51.5993 12.02 54.0549 13.9494 54.0549 16.853C54.0549 19.6001 51.4631 21.6859 48.6768 21.6859H44.4281V25.6609H41.7V12.02ZM48.6768 14.5337H44.4281V19.1332H48.6768C50.1772 19.1332 51.3268 18.1388 51.3268 16.853C51.3268 15.5671 50.1961 14.5337 48.6768 14.5337Z" fill="white"/>
            <path d="M55.9642 12.02H67.2276V14.5337H58.6923V17.5735H66.916V20.0872H58.6923V23.1271H67.2276V25.6609H55.9642V12.02Z" fill="white"/>
            <path d="M76.4645 23.3416C78.433 23.3416 79.9725 22.4255 80.7322 20.944H83.6156C82.7777 24.004 79.9713 25.9524 76.4633 25.9524C72.1957 25.9524 68.9804 22.9125 68.9804 18.8594C68.9804 14.8063 72.1767 11.7273 76.4633 11.7273C79.9713 11.7273 82.7576 13.6756 83.6156 16.7357H80.7322C79.9915 15.2353 78.452 14.3393 76.4645 14.3393C73.6783 14.3393 71.7098 16.1715 71.7098 18.8606C71.7098 21.5496 73.6973 23.3427 76.4645 23.3427V23.3416Z" fill="white"/>
            <path d="M89.5199 14.5337H84.687V12.02H97.0419V14.5337H92.2481V25.6609H89.5199V14.5337Z" fill="white"/>
        </g>
    </symbol>

    <symbol id="burger-icon" viewBox="0 0 24 24">
        <g>
            <path d="M21 12C21 12.1989 20.921 12.3897 20.7803 12.5303C20.6397 12.671 20.4489 12.75 20.25 12.75H3.75C3.55109 12.75 3.36032 12.671 3.21967 12.5303C3.07902 12.3897 3 12.1989 3 12C3 11.8011 3.07902 11.6103 3.21967 11.4697C3.36032 11.329 3.55109 11.25 3.75 11.25H20.25C20.4489 11.25 20.6397 11.329 20.7803 11.4697C20.921 11.6103 21 11.8011 21 12ZM3.75 6.75H20.25C20.4489 6.75 20.6397 6.67098 20.7803 6.53033C20.921 6.38968 21 6.19891 21 6C21 5.80109 20.921 5.61032 20.7803 5.46967C20.6397 5.32902 20.4489 5.25 20.25 5.25H3.75C3.55109 5.25 3.36032 5.32902 3.21967 5.46967C3.07902 5.61032 3 5.80109 3 6C3 6.19891 3.07902 6.38968 3.21967 6.53033C3.36032 6.67098 3.55109 6.75 3.75 6.75ZM20.25 17.25H3.75C3.55109 17.25 3.36032 17.329 3.21967 17.4697C3.07902 17.6103 3 17.8011 3 18C3 18.1989 3.07902 18.3897 3.21967 18.5303C3.36032 18.671 3.55109 18.75 3.75 18.75H20.25C20.4489 18.75 20.6397 18.671 20.7803 18.5303C20.921 18.3897 21 18.1989 21 18C21 17.8011 20.921 17.6103 20.7803 17.4697C20.6397 17.329 20.4489 17.25 20.25 17.25Z" fill="#20B2AA"/>
        </g>
    </symbol>

    <symbol id="close-icon" viewBox="0 0 24 24">
        <g>
            <path id="Mask" fill-rule="evenodd" clip-rule="evenodd" d="M18.3 7.1C18.6866 6.7134 18.6866 6.0866 18.3 5.7C17.9134 5.3134 17.2866 5.3134 16.9 5.7L12 10.6L7.1 5.7C6.7134 5.3134 6.0866 5.3134 5.7 5.7C5.3134 6.0866 5.3134 6.7134 5.7 7.1L10.6 12L5.7 16.9C5.3134 17.2866 5.3134 17.9134 5.7 18.3C6.0866 18.6866 6.7134 18.6866 7.1 18.3L12 13.4L16.9 18.3C17.2866 18.6866 17.9134 18.6866 18.3 18.3C18.6866 17.9134 18.6866 17.2866 18.3 16.9L13.4 12L18.3 7.1Z" />
        </g>
    </symbol>

    <symbol id="fb-icon" viewBox="0 0 24 24">
        <g>
            <path d="M12 2.25C10.0716 2.25 8.18657 2.82183 6.58319 3.89317C4.97982 4.96451 3.73013 6.48726 2.99218 8.26884C2.25422 10.0504 2.06114 12.0108 2.43735 13.9021C2.81355 15.7934 3.74215 17.5307 5.10571 18.8943C6.46928 20.2579 8.20656 21.1865 10.0979 21.5627C11.9892 21.9389 13.9496 21.7458 15.7312 21.0078C17.5127 20.2699 19.0355 19.0202 20.1068 17.4168C21.1782 15.8134 21.75 13.9284 21.75 12C21.7473 9.41498 20.7192 6.93661 18.8913 5.10872C17.0634 3.28084 14.585 2.25273 12 2.25ZM12.75 20.2153V14.25H15C15.1989 14.25 15.3897 14.171 15.5303 14.0303C15.671 13.8897 15.75 13.6989 15.75 13.5C15.75 13.3011 15.671 13.1103 15.5303 12.9697C15.3897 12.829 15.1989 12.75 15 12.75H12.75V10.5C12.75 10.1022 12.908 9.72064 13.1893 9.43934C13.4706 9.15804 13.8522 9 14.25 9H15.75C15.9489 9 16.1397 8.92098 16.2803 8.78033C16.421 8.63968 16.5 8.44891 16.5 8.25C16.5 8.05109 16.421 7.86032 16.2803 7.71967C16.1397 7.57902 15.9489 7.5 15.75 7.5H14.25C13.4544 7.5 12.6913 7.81607 12.1287 8.37868C11.5661 8.94129 11.25 9.70435 11.25 10.5V12.75H9C8.80109 12.75 8.61033 12.829 8.46967 12.9697C8.32902 13.1103 8.25 13.3011 8.25 13.5C8.25 13.6989 8.32902 13.8897 8.46967 14.0303C8.61033 14.171 8.80109 14.25 9 14.25H11.25V20.2153C9.13575 20.0223 7.17728 19.0217 5.78198 17.4215C4.38667 15.8214 3.66195 13.7449 3.75855 11.6241C3.85515 9.50324 4.76564 7.50127 6.30064 6.0346C7.83563 4.56793 9.87696 3.74947 12 3.74947C14.1231 3.74947 16.1644 4.56793 17.6994 6.0346C19.2344 7.50127 20.1449 9.50324 20.2415 11.6241C20.3381 13.7449 19.6133 15.8214 18.218 17.4215C16.8227 19.0217 14.8643 20.0223 12.75 20.2153Z"/>
        </g>
    </symbol>

    <symbol id="insta-icon" viewBox="0 0 24 24">
        <g>
            <path d="M12 7.5C11.11 7.5 10.24 7.76392 9.49993 8.25839C8.75991 8.75285 8.18314 9.45566 7.84254 10.2779C7.50195 11.1002 7.41283 12.005 7.58647 12.8779C7.7601 13.7508 8.18868 14.5526 8.81802 15.182C9.44736 15.8113 10.2492 16.2399 11.1221 16.4135C11.995 16.5872 12.8998 16.4981 13.7221 16.1575C14.5443 15.8169 15.2471 15.2401 15.7416 14.5001C16.2361 13.76 16.5 12.89 16.5 12C16.4988 10.8069 16.0243 9.66303 15.1806 8.81939C14.337 7.97575 13.1931 7.50124 12 7.5ZM12 15C11.4067 15 10.8266 14.8241 10.3333 14.4944C9.83994 14.1648 9.45542 13.6962 9.22836 13.1481C9.0013 12.5999 8.94189 11.9967 9.05764 11.4147C9.1734 10.8328 9.45912 10.2982 9.87868 9.87868C10.2982 9.45912 10.8328 9.1734 11.4147 9.05764C11.9967 8.94189 12.5999 9.0013 13.1481 9.22836C13.6962 9.45542 14.1648 9.83994 14.4944 10.3333C14.8241 10.8266 15 11.4067 15 12C15 12.7956 14.6839 13.5587 14.1213 14.1213C13.5587 14.6839 12.7956 15 12 15ZM16.5 2.25H7.5C6.10807 2.25149 4.77358 2.80509 3.78933 3.78933C2.80509 4.77358 2.25149 6.10807 2.25 7.5V16.5C2.25149 17.8919 2.80509 19.2264 3.78933 20.2107C4.77358 21.1949 6.10807 21.7485 7.5 21.75H16.5C17.8919 21.7485 19.2264 21.1949 20.2107 20.2107C21.1949 19.2264 21.7485 17.8919 21.75 16.5V7.5C21.7485 6.10807 21.1949 4.77358 20.2107 3.78933C19.2264 2.80509 17.8919 2.25149 16.5 2.25ZM20.25 16.5C20.25 17.4946 19.8549 18.4484 19.1516 19.1516C18.4484 19.8549 17.4946 20.25 16.5 20.25H7.5C6.50544 20.25 5.55161 19.8549 4.84835 19.1516C4.14509 18.4484 3.75 17.4946 3.75 16.5V7.5C3.75 6.50544 4.14509 5.55161 4.84835 4.84835C5.55161 4.14509 6.50544 3.75 7.5 3.75H16.5C17.4946 3.75 18.4484 4.14509 19.1516 4.84835C19.8549 5.55161 20.25 6.50544 20.25 7.5V16.5ZM18 7.125C18 7.3475 17.934 7.56501 17.8104 7.75002C17.6868 7.93502 17.5111 8.07922 17.3055 8.16436C17.1 8.24951 16.8738 8.27179 16.6555 8.22838C16.4373 8.18498 16.2368 8.07783 16.0795 7.9205C15.9222 7.76316 15.815 7.56271 15.7716 7.34448C15.7282 7.12625 15.7505 6.90005 15.8356 6.69448C15.9208 6.48891 16.065 6.31321 16.25 6.1896C16.435 6.06598 16.6525 6 16.875 6C17.1734 6 17.4595 6.11853 17.6705 6.3295C17.8815 6.54048 18 6.82663 18 7.125Z" />
        </g>
    </symbol>

    <symbol id="whatsapp-icon" viewBox="0 0 24 24">
        <g>
            <path d="M17.5858 13.5787L14.5858 12.0787C14.4677 12.0199 14.3362 11.9933 14.2045 12.0015C14.0728 12.0097 13.9456 12.0525 13.8358 12.1256L12.4586 13.0444C11.8264 12.6968 11.3062 12.1766 10.9586 11.5444L11.8774 10.1672C11.9505 10.0573 11.9933 9.93016 12.0015 9.79848C12.0097 9.6668 11.9831 9.53528 11.9242 9.41719L10.4242 6.41719C10.3621 6.29163 10.266 6.186 10.1468 6.11226C10.0277 6.03853 9.89028 5.99964 9.75017 6C8.75561 6 7.80179 6.39509 7.09852 7.09835C6.39526 7.80161 6.00018 8.75544 6.00017 9.75C6.00266 11.9373 6.87265 14.0343 8.41928 15.5809C9.96592 17.1275 12.0629 17.9975 14.2502 18C14.7426 18 15.2303 17.903 15.6852 17.7145C16.1402 17.5261 16.5536 17.2499 16.9018 16.9017C17.25 16.5534 17.5263 16.14 17.7147 15.6851C17.9032 15.2301 18.0002 14.7425 18.0002 14.25C18.0003 14.1107 17.9616 13.9741 17.8884 13.8555C17.8152 13.7369 17.7104 13.6411 17.5858 13.5787ZM14.2502 16.5C12.4606 16.498 10.7448 15.7862 9.4794 14.5208C8.21396 13.2553 7.50216 11.5396 7.50017 9.75C7.50003 9.2298 7.68014 8.72562 8.00986 8.32326C8.33958 7.9209 8.79853 7.64521 9.30861 7.54313L10.3849 9.69938L9.46892 11.0625C9.40048 11.1652 9.35842 11.2831 9.34649 11.406C9.33455 11.5288 9.3531 11.6526 9.40049 11.7666C9.9371 13.0419 10.9517 14.0565 12.227 14.5931C12.3413 14.6426 12.4661 14.6629 12.5902 14.6521C12.7143 14.6413 12.8337 14.5998 12.9377 14.5312L14.3074 13.6181L16.4636 14.6944C16.3607 15.205 16.0838 15.6642 15.6802 15.9935C15.2765 16.3228 14.7711 16.5018 14.2502 16.5ZM12.0002 2.25C10.3169 2.24963 8.66213 2.68508 7.19704 3.51396C5.73194 4.34285 4.50641 5.53692 3.63971 6.97997C2.77302 8.42301 2.29469 10.0659 2.25129 11.7486C2.20789 13.4314 2.60089 15.0967 3.39205 16.5825L2.32799 19.7747C2.23985 20.039 2.22706 20.3226 2.29105 20.5938C2.35504 20.8649 2.49328 21.1129 2.69029 21.3099C2.88729 21.5069 3.13526 21.6451 3.40642 21.7091C3.67757 21.7731 3.96119 21.7603 4.22549 21.6722L7.41768 20.6081C8.72527 21.3036 10.1741 21.6921 11.6543 21.744C13.1344 21.7959 14.6069 21.51 15.9601 20.9079C17.3132 20.3057 18.5114 19.4033 19.4636 18.269C20.4159 17.1346 21.0972 15.7983 21.4559 14.3613C21.8146 12.9244 21.8412 11.4246 21.5337 9.97578C21.2263 8.52701 20.5928 7.16732 19.6813 5.99992C18.7699 4.83253 17.6045 3.88811 16.2736 3.23836C14.9427 2.58861 13.4812 2.25061 12.0002 2.25ZM12.0002 20.25C10.5498 20.251 9.12495 19.8691 7.86955 19.1428C7.77763 19.0895 7.67544 19.0563 7.56974 19.0455C7.46404 19.0347 7.35724 19.0464 7.25643 19.08L3.75018 20.25L4.91924 16.7438C4.95294 16.643 4.96485 16.5362 4.95418 16.4305C4.94351 16.3248 4.91051 16.2226 4.85736 16.1306C3.94796 14.5584 3.58284 12.7299 3.81864 10.929C4.05444 9.12801 4.87798 7.4552 6.16151 6.17006C7.44503 4.88491 9.11679 4.05925 10.9175 3.82118C12.7181 3.5831 14.547 3.94591 16.1204 4.85333C17.6938 5.76074 18.9238 7.16204 19.6196 8.83983C20.3153 10.5176 20.4379 12.3781 19.9684 14.1327C19.4989 15.8873 18.4634 17.4379 17.0227 18.5439C15.582 19.65 13.8165 20.2497 12.0002 20.25Z" fill="#F8FAFC"/>
        </g>
    </symbol>

    <symbol id="arrow-icon" viewBox="0 0 24 24">
        <g>
            <path d="M20.7806 12.5306L14.0306 19.2806C13.8899 19.4213 13.699 19.5003 13.5 19.5003C13.301 19.5003 13.1101 19.4213 12.9694 19.2806C12.8286 19.1398 12.7496 18.949 12.7496 18.7499C12.7496 18.5509 12.8286 18.36 12.9694 18.2193L18.4397 12.7499H3.75C3.55109 12.7499 3.36032 12.6709 3.21967 12.5303C3.07902 12.3896 3 12.1988 3 11.9999C3 11.801 3.07902 11.6103 3.21967 11.4696C3.36032 11.3289 3.55109 11.2499 3.75 11.2499H18.4397L12.9694 5.78055C12.8286 5.63982 12.7496 5.44895 12.7496 5.24993C12.7496 5.05091 12.8286 4.86003 12.9694 4.7193C13.1101 4.57857 13.301 4.49951 13.5 4.49951C13.699 4.49951 13.8899 4.57857 14.0306 4.7193L20.7806 11.4693C20.8504 11.539 20.9057 11.6217 20.9434 11.7127C20.9812 11.8038 21.0006 11.9014 21.0006 11.9999C21.0006 12.0985 20.9812 12.1961 20.9434 12.2871C20.9057 12.3782 20.8504 12.4609 20.7806 12.5306Z" />
        </g>
    </symbol>

    <symbol id="3shape-logo-icon" viewBox="0 0 100 19">
        <g>
            <g clip-path="url(#clip0_219_319)">
                <path d="M13.0615 8.43744C13.0615 6.78565 14.9916 5.80351 17.6872 5.80351C20.6322 5.80351 20.8818 6.17553 20.8818 7.23208C20.8818 7.4553 20.7986 7.60411 20.5491 7.60411C20.2995 7.60411 19.0349 7.23208 17.6872 7.23208C16.589 7.23208 15.5906 7.60411 15.5906 8.28863C15.5906 9.94042 21.8968 9.6428 21.8968 12.7232C21.8968 14.6726 19.2013 15.5803 17.0216 15.5803C15.0083 15.5803 13.0782 15.0595 13.0782 15.0595C13.0782 15.0595 12.9118 14.2261 12.9118 13.7797C12.9118 13.6309 13.0782 13.4821 13.2446 13.4821C13.4109 13.4821 15.2579 14.1517 17.1048 14.1517C18.5357 14.1517 19.2845 13.5565 19.2845 12.872C19.2845 11.1309 13.0615 11.2797 13.0615 8.43744ZM25.8402 2.41065C25.8402 1.74101 27.3544 1.88982 27.8535 1.88982C28.1031 1.88982 28.3527 2.03863 28.3527 2.33625V7.4553C28.3527 7.5297 28.3527 7.60411 28.3527 7.60411C28.6855 7.60411 29.95 5.87791 32.6456 5.87791C34.8253 5.87791 36.5058 6.93446 36.5058 8.73506V14.9702C36.5058 15.2678 36.0898 15.4166 35.9234 15.4166H34.5757C34.3261 15.4166 33.9933 15.2678 33.9933 14.9702V9.62792C33.9933 8.27375 33.7437 7.5297 32.2296 7.5297C29.9667 7.5297 28.3694 9.47911 28.3694 9.47911V15.0446C28.3694 15.2678 28.1198 15.491 27.787 15.491H26.4392C26.1065 15.491 25.8569 15.2678 25.8569 15.0446C25.8402 15.0446 25.8402 2.41065 25.8402 2.41065ZM45.3411 5.4166C44.0765 5.4166 42.7288 5.56541 42.1464 5.78863C41.564 6.01184 41.4808 6.23506 41.4808 6.84518C41.4808 7.1428 41.564 7.60411 41.6472 7.60411C41.8136 7.60411 43.4109 7.00887 45.3411 7.00887C47.5208 7.00887 48.2862 7.38089 48.2862 8.66065C48.2862 8.80946 48.2862 8.95827 48.0366 8.95827C43.6605 8.95827 40.3827 9.86601 40.3827 12.4851C40.3827 14.5089 42.396 15.5654 44.1597 15.5654C46.5058 15.5654 47.6872 14.4345 48.1863 14.4345C48.5191 14.4345 48.3527 15.2678 49.2013 15.2678H50.1331C50.4659 15.2678 50.5491 15.0446 50.5491 14.8214V9.10708C50.7154 6.77077 49.5341 5.4166 45.3411 5.4166ZM48.2695 12.4851C48.2695 13.0803 46.2562 13.8392 44.9916 13.8392C44.0599 13.8392 42.8119 13.5416 42.8119 12.3362C42.8119 10.238 47.1048 10.3868 48.0199 10.3868C48.1031 10.3868 48.2695 10.3868 48.2695 10.3868V12.4851ZM62.2296 5.80351C59.5341 5.80351 58.0199 7.5297 58.0199 7.5297C58.0199 7.5297 57.8535 7.08327 57.7704 6.62196C57.604 6.17553 57.4376 6.02672 57.0216 6.02672H56.0898C55.9234 6.02672 55.5075 6.10113 55.5075 6.47315V18.2737C55.5075 18.5714 55.757 18.7202 55.9234 18.7202H57.604C57.9367 18.7202 58.0199 18.497 58.0199 18.2737V14.4345C58.0199 14.4345 59.3677 15.5654 61.797 15.5654C65.0748 15.5654 67.1714 13.0803 67.1714 10.372C67.188 7.5297 65.2579 5.80351 62.2296 5.80351ZM61.2978 14.0624C59.7005 14.0624 58.0199 13.3035 58.0199 12.5595V8.86899C58.0199 8.86899 59.6173 7.44041 61.5474 7.44041C63.4775 7.44041 64.4093 8.57137 64.4093 10.5952C64.4925 12.2618 63.5773 14.0624 61.2978 14.0624ZM73.0782 11.2053C73.0782 11.0565 73.1614 10.9821 73.3278 10.9821H80.6323C80.8818 10.9821 81.2146 10.8333 81.2146 10.3868C81.2146 7.75291 79.6173 5.7291 76.173 5.7291C73.0615 5.7291 70.366 7.5297 70.366 10.5357C70.366 13.5416 73.3943 15.4166 77.005 15.4166C78.4359 15.4166 80.8652 15.1934 81.0316 14.5089C81.1148 14.2112 81.198 13.3035 81.198 13.3035C81.198 13.3035 79.6006 13.9732 77.4209 13.9732C74.2429 14.1368 73.0782 12.4107 73.0782 11.2053ZM76.0066 7.23208C77.6872 7.23208 78.6189 8.06542 78.6189 9.3303C78.6189 9.55351 78.4526 9.55351 78.203 9.55351H72.995C73.0782 9.3303 73.1614 7.23208 76.0066 7.23208ZM2.71211 10.9077C2.37933 10.9077 2.21294 10.7589 2.21294 10.4612V10.0148C2.21294 9.7172 2.37933 9.56839 2.71211 9.56839H3.46086C5.0582 9.56839 6.48915 9.19637 6.48915 8.13982C6.48915 7.38089 5.22459 7.08327 3.87683 7.08327C2.11311 7.08327 0.266186 7.67851 0.266186 7.67851C0.266186 7.67851 0.34938 7.4553 0.34938 6.91958C0.34938 6.77077 0.432575 6.39875 0.432575 6.39875C0.432575 5.95232 2.02991 5.7291 3.87683 5.7291C7.07151 5.7291 8.75204 6.56244 8.75204 7.90172C8.75204 9.62791 5.89015 10.1636 5.89015 10.1636C5.89015 10.1636 9.25121 10.4612 9.25121 12.6487C9.25121 14.2261 7.57068 15.5059 3.79364 15.5059C2.02991 15.5059 0.266186 15.2083 0.266186 15.2083C0.266186 15.2083 0.0166016 14.3005 0.0166016 14.0029C0.0166016 13.8541 0.182991 13.7053 0.34938 13.7053C0.51577 13.7053 2.61228 14.1517 3.71045 14.1517C5.47417 14.1517 6.82193 13.7797 6.82193 12.7232C6.82193 11.4434 5.39098 10.9226 2.96169 10.9226H2.71211V10.9077Z" fill="#5F5F64"/>
                <path d="M88.4528 0.1636C88.0368 -0.0596141 87.521 0.0147907 87.3546 0.31241C87.1882 0.535624 87.105 0.833243 87.105 0.982053C87.105 1.13086 85.4245 9.8511 85.3413 10.3719C85.3413 10.6696 85.4245 10.8928 85.6741 11.0416C85.8405 11.1904 86.0901 11.1904 86.2565 11.1904C86.6724 11.116 98.536 8.33324 99.2015 8.25884C99.3679 8.25884 99.6175 8.11003 99.7007 7.96122C99.9503 7.6636 99.8671 7.20229 99.5343 6.97907C99.0518 6.62193 89.0351 0.535624 88.4528 0.1636ZM87.9536 3.9136C88.2032 3.15467 88.2032 2.63384 88.4528 2.33622C88.6192 2.11301 88.9519 2.0386 89.2015 2.18741C89.6175 2.48503 89.7007 3.24395 89.3679 3.83919C89.0351 4.43443 86.6724 8.72015 86.6724 8.72015C86.6724 8.72015 87.3546 5.80348 87.9536 3.9136ZM96.3563 6.69634C96.3563 6.77074 96.3563 6.84515 96.2731 6.91955C96.1067 7.06836 95.8571 7.21717 95.6075 7.29158C95.3579 7.36598 88.4694 9.7767 88.2032 9.8511C87.9536 9.92551 87.4544 10.1487 87.2714 9.99991C87.0218 9.8511 87.1882 9.55348 87.3546 9.24098C88.0202 8.33324 90.5493 4.95526 90.7989 4.50884C91.2149 3.988 91.897 3.74991 92.4794 4.13681C93.145 4.58324 95.8405 6.23503 96.0069 6.30943C96.1899 6.47312 96.3563 6.54753 96.3563 6.69634Z" fill="#C8143C"/>
            </g>
            <defs>
                <clipPath id="clip0_219_319">
                    <rect width="100" height="18.75" fill="white"/>
                </clipPath>
            </defs>
        </g>
    </symbol>

    <symbol id="lvocal-icon" viewBox="0 0 64 44">
        <g>
            <g clip-path="url(#clip0_219_325)">
                <path fill-rule="evenodd" clip-rule="evenodd" d="M1.71205 9.34272C2.51327 9.34272 3.16575 9.99182 3.16575 10.793C3.16575 11.5943 2.51327 12.2434 1.71205 12.2434C0.910816 12.2434 0.261719 11.5943 0.261719 10.793C0.261719 9.99182 0.910816 9.34272 1.71205 9.34272ZM61.7434 26.128H63.9307V28.3153H61.7434V26.128ZM61.1078 17.9906C60.5398 17.9906 60.1477 18.0007 60.0733 18.0751C60.0158 18.1326 60.0057 18.5383 60.0057 19.0893C60.0057 19.6438 60.0158 20.0494 60.0733 20.1069C60.1477 20.1813 60.5398 20.188 61.1078 20.188C61.6724 20.188 62.0646 20.1813 62.1389 20.1069C62.1964 20.0494 62.2065 19.6438 62.2065 19.0893C62.2065 18.5383 62.1964 18.1326 62.1389 18.0751C62.0646 18.0007 61.6724 17.9906 61.1078 17.9906ZM56.5709 11.0365C56.0063 11.0365 55.6682 11.0263 55.5668 11.1277C55.4823 11.2123 55.4688 11.5672 55.4688 12.1217C55.4688 12.6761 55.4823 13.0311 55.5668 13.1156C55.6682 13.217 56.0063 13.2069 56.5709 13.2069C57.1355 13.2069 57.4769 13.217 57.5783 13.1156C57.6629 13.0311 57.673 12.6761 57.673 12.1217C57.673 11.5672 57.6629 11.2123 57.5783 11.1277C57.4769 11.0263 57.1355 11.0365 56.5709 11.0365ZM49.9717 5.77269C48.9203 5.77269 48.9474 5.74902 48.9474 6.78352C48.9474 7.81802 48.9203 7.79435 49.9717 7.79435C51.0231 7.79435 50.9995 7.81802 50.9995 6.78352C50.9995 5.74902 51.0231 5.77269 49.9717 5.77269ZM42.1724 2.28041C41.3205 2.28041 41.236 2.32774 41.2089 3.22701C41.236 4.12966 41.3205 4.17361 42.1724 4.17361C43.021 4.17361 43.1055 4.12966 43.1326 3.22701C43.1055 2.32774 43.021 2.28041 42.1724 2.28041ZM8.45657 4.63C8.15231 4.63 7.15499 4.69086 7.11781 5.9451C7.15499 7.19935 8.15231 7.26358 8.45657 7.26358C8.76083 7.26358 9.75814 7.19935 9.79533 5.9451C9.75814 4.69086 8.76083 4.63 8.45657 4.63ZM16.2153 1.60088C15.6778 1.60088 15.0321 1.65836 14.9949 2.80104C15.0321 3.94372 15.6778 4.00119 16.2153 4.00119C16.7562 4.00119 17.4019 3.94372 17.4357 2.80104C17.4019 1.65836 16.7562 1.60088 16.2153 1.60088ZM24.8835 0.06604C24.1228 0.06604 23.7949 0.120131 23.7644 1.16815C23.7949 2.21955 24.1228 2.27027 24.8835 2.27027C25.6475 2.27027 25.972 2.21955 26.0059 1.16815C25.972 0.120131 25.6475 0.06604 24.8835 0.06604ZM33.7342 0.373685C32.9431 0.373685 32.7808 0.421015 32.7538 1.34057C32.7808 2.25674 32.9431 2.30407 33.7342 2.30407C34.5253 2.30407 34.6841 2.25674 34.7146 1.34057C34.6841 0.421015 34.5253 0.373685 33.7342 0.373685Z" fill="url(#paint0_linear_219_325)"/>
                <path fill-rule="evenodd" clip-rule="evenodd" d="M0.772115 14.0149H2.64165V20.8304C2.64165 21.3477 2.22244 21.7669 1.70519 21.7669C1.19132 21.7669 0.772115 21.3477 0.772115 20.8304V14.0149ZM62.673 31.26C62.8927 31.26 63.1023 31.314 63.3119 31.4256C63.5182 31.5372 63.6804 31.6961 63.7954 31.9057C63.9103 32.1119 63.9678 32.3283 63.9678 32.5548C63.9678 32.7779 63.9103 32.9909 63.7954 33.1971C63.6838 33.4033 63.5249 33.5622 63.3187 33.6772C63.1125 33.7921 62.8995 33.8462 62.673 33.8462C62.4499 33.8462 62.2369 33.7921 62.0307 33.6772C61.8244 33.5622 61.6655 33.4033 61.5506 33.1971C61.4356 32.9909 61.3782 32.7779 61.3782 32.5548C61.3782 32.3283 61.4356 32.1119 61.554 31.9057C61.6689 31.6961 61.8312 31.5372 62.0374 31.4256C62.2436 31.314 62.4566 31.26 62.673 31.26ZM62.1862 33.2681V31.811H62.6696C62.8353 31.811 62.9536 31.8245 63.028 31.8516C63.1023 31.8786 63.1598 31.926 63.2038 31.9936C63.2477 32.0612 63.268 32.1322 63.268 32.2066C63.268 32.3114 63.2342 32.4094 63.1598 32.4838C63.0787 32.5649 62.9874 32.6055 62.8792 32.6291L63.2849 33.2681H63.0482L62.6561 32.6494H62.4127V33.2681H62.1862ZM62.4127 32.4466H62.6865C62.8184 32.4466 62.9096 32.4263 62.957 32.3857C63.0043 32.3452 63.028 32.2944 63.028 32.2268C63.028 32.1829 63.0178 32.1457 62.9942 32.1119C62.9705 32.0781 62.9401 32.051 62.8995 32.0341C62.8555 32.0206 62.7812 32.0105 62.6696 32.0105H62.4127V32.4466ZM62.673 31.4729C62.4938 31.4729 62.3146 31.5203 62.1422 31.6115C61.9698 31.7062 61.8346 31.8381 61.7399 32.0138C61.6419 32.1863 61.5912 32.3654 61.5912 32.5548C61.5912 32.7407 61.6419 32.9199 61.7365 33.0889C61.8312 33.2613 61.9664 33.3932 62.1355 33.4912C62.3079 33.5859 62.487 33.6332 62.673 33.6332C62.8589 33.6332 63.0415 33.5859 63.2105 33.4912C63.3829 33.3932 63.5148 33.2613 63.6128 33.0889C63.7075 32.9199 63.7548 32.7407 63.7548 32.5548C63.7548 32.3654 63.7041 32.1863 63.6094 32.0138C63.5114 31.8381 63.3762 31.7062 63.2038 31.6115C63.0313 31.5203 62.8555 31.4729 62.673 31.4729ZM44.2616 25.915C42.0168 25.915 40.198 27.6967 40.198 29.8941C40.198 32.0916 42.0168 33.8732 44.2616 33.8732C45.57 33.8732 46.7329 33.2681 47.4767 32.3316L46.1548 31.3343C45.6748 31.8685 45.1744 32.3485 44.1264 32.3485C42.7437 32.3485 42.2501 31.4493 42.0811 30.55H47.8249C47.9905 28.055 46.8715 25.915 44.2616 25.915ZM45.9824 29.147H42.0946C42.1859 28.0043 43.0277 27.318 44.0317 27.318C45.0324 27.318 45.9013 27.842 45.9824 29.147ZM12.2158 26.1213H14.2476L16.2558 31.4222L18.2605 26.1213H20.2924L17.4559 33.1058C17.3951 33.2174 17.0739 33.8732 16.2558 33.8732C15.4343 33.8732 15.1131 33.2174 15.0523 33.1058L12.2158 26.1213ZM0.0317383 26.1213H2.06355L4.07169 31.4222L6.07646 26.1213H8.10826L5.27184 33.1058C5.21099 33.2174 4.88982 33.8732 4.07169 33.8732C3.25018 33.8732 2.92901 33.2174 2.86816 33.1058L0.0317383 26.1213ZM3.77081 14.0149H5.80262L7.80738 19.3159L9.81552 14.0149H11.8473L9.01091 20.9995C8.95006 21.1144 8.62889 21.7669 7.80738 21.7669C6.98925 21.7669 6.66808 21.1144 6.60723 20.9995L3.77081 14.0149ZM56.3003 30.2288V32.9368C56.3003 33.4507 55.8778 33.8732 55.3639 33.8732C54.85 33.8732 54.4308 33.4507 54.4308 32.9368V29.3634C54.3598 28.2849 53.9812 27.5953 53.0481 27.6054C51.9696 27.5953 51.5842 28.1835 51.307 29.0523V32.9368C51.307 33.4507 50.8844 33.8732 50.3706 33.8732C49.8567 33.8732 49.4341 33.4507 49.4341 32.9368V26.1213H51.307V27.1727C51.7229 26.5303 52.2908 25.986 53.6025 25.9319C54.5018 25.9319 56.3003 26.4154 56.3003 28.8427V30.2288ZM60.151 23.2679V32.9368C60.151 33.4507 59.7318 33.8732 59.2179 33.8732C58.7006 33.8732 58.2814 33.4507 58.2814 32.9368V28.1463H57.443V26.128H58.2814V23.2679H60.151ZM36.6922 23.2679H38.5651V32.9368C38.5651 33.4507 38.1425 33.8732 37.6287 33.8732C37.1148 33.8732 36.6922 33.4507 36.6922 32.9368V32.8016C36.0363 33.4878 35.1912 33.8732 34.515 33.8732C32.3176 33.8732 30.5359 32.0916 30.5359 29.8941C30.5359 27.6967 32.3176 25.915 34.515 25.915C35.4346 25.915 36.0904 26.3917 36.6922 26.9901V23.2679ZM34.515 27.6426C33.2709 27.6426 32.2635 28.65 32.2635 29.8941C32.2635 31.1382 33.2709 32.1457 34.515 32.1457C35.7557 32.1457 36.7666 31.1382 36.7666 29.8941C36.7666 28.65 35.7557 27.6426 34.515 27.6426ZM27.0538 26.1213H28.9233V32.9368C28.9233 33.4507 28.5041 33.8732 27.9902 33.8732C27.4764 33.8732 27.0538 33.4507 27.0538 32.9368V32.8016C26.3945 33.4878 25.5527 33.8732 24.8732 33.8732C22.6758 33.8732 20.8941 32.0916 20.8941 29.8941C20.8941 27.6967 22.6758 25.915 24.8732 25.915C25.7928 25.915 26.452 26.3917 27.0538 26.9901V26.1213ZM24.8732 27.6426C23.6291 27.6426 22.6217 28.65 22.6217 29.8941C22.6217 31.1382 23.6291 32.1457 24.8732 32.1457C26.1173 32.1457 27.1248 31.1382 27.1248 29.8941C27.1248 28.65 26.1173 27.6426 24.8732 27.6426ZM9.22728 26.1213H11.0968V32.9368C11.0968 33.4507 10.6742 33.8732 10.1604 33.8732C9.64649 33.8732 9.22728 33.4507 9.22728 32.9368V26.1213ZM43.0885 14.0149H44.958V15.2117C45.7559 14.0487 46.7093 13.6633 47.9094 13.9439V15.7594C46.3949 15.3368 45.3806 15.7932 44.958 17.23V20.8304C44.958 21.3477 44.5388 21.7669 44.025 21.7669C43.5077 21.7669 43.0885 21.3477 43.0885 20.8304V14.0149ZM39.4002 14.0149H41.2731V20.8304C41.2731 21.3477 40.8505 21.7669 40.3366 21.7669C39.8227 21.7669 39.4002 21.3477 39.4002 20.8304V20.6952C38.7443 21.3815 37.8991 21.7669 37.2196 21.7669C35.0221 21.7669 33.2405 19.9853 33.2405 17.7878C33.2405 15.5903 35.0221 13.8087 37.2196 13.8087C38.1425 13.8087 38.7984 14.2854 39.4002 14.8838V14.0149ZM37.2196 15.5362C35.9789 15.5362 34.9714 16.5437 34.9714 17.7878C34.9714 19.0319 35.9789 20.0394 37.2196 20.0394C38.4637 20.0394 39.4711 19.0319 39.4711 17.7878C39.4711 16.5437 38.4637 15.5362 37.2196 15.5362ZM25.7657 13.8087C23.5683 13.8087 21.7866 15.5903 21.7866 17.7878C21.7866 19.9853 23.5683 21.7669 25.7657 21.7669C26.8712 21.7669 27.8719 21.3173 28.592 20.587L27.3648 19.3734C26.9557 19.7824 26.3912 20.0394 25.7657 20.0394C24.5216 20.0394 23.5142 19.0319 23.5142 17.7878C23.5142 16.5437 24.5216 15.5362 25.7657 15.5362C26.3912 15.5362 26.9557 15.7932 27.3648 16.2022L28.592 14.9886C27.8719 14.2583 26.8712 13.8087 25.7657 13.8087ZM16.3809 13.8087C14.1834 13.8087 12.4018 15.5903 12.4018 17.7878C12.4018 19.9853 14.1834 21.7669 16.3809 21.7669C18.5783 21.7669 20.36 19.9853 20.36 17.7878C20.36 15.5903 18.5783 13.8087 16.3809 13.8087ZM16.3809 15.5362C15.1368 15.5362 14.1293 16.5437 14.1293 17.7878C14.1293 19.0319 15.1368 20.0394 16.3809 20.0394C17.625 20.0394 18.6324 19.0319 18.6324 17.7878C18.6324 16.5437 17.625 15.5362 16.3809 15.5362ZM29.7685 11.1379H31.6414V20.8304C31.6414 21.3443 31.2188 21.7669 30.705 21.7669C30.1911 21.7669 29.7685 21.3477 29.7685 20.8304V11.1379Z" fill="#245E9D"/>
            </g>
            <defs>
                <linearGradient id="paint0_linear_219_325" x1="0.262801" y1="14.1907" x2="63.93" y2="14.1907" gradientUnits="userSpaceOnUse">
                    <stop stop-color="#85BF42"/>
                    <stop offset="1" stop-color="#245E9D"/>
                </linearGradient>
                <clipPath id="clip0_219_325">
                    <rect width="64" height="33.9394" fill="white"/>
                </clipPath>
            </defs>
        </g>
    </symbol>

    <symbol id="amann-icon" viewBox="0 0 90 28">
        <g>
            <g clip-path="url(#clip0_219_331)">
                <path d="M45.7308 0.00114059C43.1533 0.00114059 40.6405 0.251685 38.2065 0.725085V3.43874C40.6332 2.93025 43.1476 2.6605 45.7308 2.6605C48.3054 2.6605 50.8204 2.93025 53.2464 3.43826V0.725085C50.8134 0.251685 48.2994 0.00114059 45.7308 0.00114059ZM38.2065 5.4822V8.40449C40.4675 7.28725 43.0234 6.65176 45.7321 6.65176C48.434 6.65176 50.9906 7.28677 53.2464 8.40411V5.4822C50.9375 4.52397 48.3943 3.99313 45.7321 3.99313C43.0602 3.99313 40.5183 4.52397 38.2065 5.4822ZM38.2065 10.7587V14.4399C39.9373 12.1571 42.6678 10.6806 45.7308 10.6806C48.7906 10.6806 51.5157 12.1571 53.2464 14.4392V10.7585C51.3052 9.05042 48.5667 8.02224 45.7308 8.02224C42.8853 8.02224 40.1173 9.05042 38.2065 10.7587Z" fill="#2A5DA8"/>
                <path d="M3.52394 23.1463C3.38986 22.7374 3.25577 22.3184 3.18894 22.0594C3.12184 22.3184 2.98789 22.7374 2.85369 23.1463L2.42295 24.4128H3.95479L3.52394 23.1463ZM4.94093 27.2953L4.41432 25.7394H1.96344L1.4367 27.2953H0.000488281L2.56645 20.3139H3.86859L6.41546 27.2953H4.94093Z" fill="#09090A"/>
                <path d="M12.7823 27.2952V24.7319C12.7823 24.3527 12.8016 23.4653 12.8016 23.196C12.7057 23.4553 12.5046 23.9538 12.3323 24.3527L10.9728 27.4547L9.61311 24.3527C9.44071 23.9538 9.23979 23.4553 9.14403 23.196C9.14403 23.4653 9.16327 24.3527 9.16327 24.7319V27.2952H7.85156V20.3138H9.14403L10.5419 23.4751C10.7142 23.8643 10.9153 24.3926 11.0014 24.6423C11.0876 24.3827 11.2792 23.8742 11.4514 23.4751L12.8016 20.3138H14.1227V27.2952H12.7823Z" fill="#09090A"/>
                <path d="M19.0341 23.1463C18.9001 22.7374 18.7662 22.3184 18.6991 22.0594C18.6321 22.3184 18.498 22.7374 18.3638 23.1463L17.9331 24.4128H19.465L19.0341 23.1463ZM20.4513 27.2953L19.9246 25.7394H17.4736L16.9468 27.2953H15.5107L18.0767 20.3139H19.3788L21.9256 27.2953H20.4513Z" fill="#09090A"/>
                <path d="M27.498 27.2953L25.0373 23.4852C24.8747 23.226 24.6543 22.8767 24.5681 22.6973C24.5681 22.9568 24.5872 23.8344 24.5872 24.2232V27.2953H23.2661V20.3139H24.5489L26.9235 24.0041C27.0862 24.2631 27.3065 24.6122 27.3927 24.7918C27.3927 24.5326 27.3735 23.655 27.3735 23.2659V20.3139H28.6948V27.2953H27.498Z" fill="#09090A"/>
                <path d="M34.9848 27.2953L32.5244 23.4852C32.3615 23.226 32.1415 22.8767 32.0551 22.6973C32.0551 22.9568 32.0742 23.8344 32.0742 24.2232V27.2953H30.7529V20.3139H32.0361L34.4104 24.0041C34.5733 24.2631 34.7933 24.6122 34.8797 24.7918C34.8797 24.5326 34.8606 23.655 34.8606 23.2659V20.3139H36.1818V27.2953H34.9848Z" fill="#09090A"/>
                <path d="M40.9509 27.4052C39.109 27.4052 37.9028 25.8589 37.9028 23.8145C37.9028 21.7402 39.163 20.2041 40.9833 20.2041C42.0174 20.2041 42.7927 20.563 43.3852 21.3212L42.7175 21.79C42.2326 21.1813 41.7805 20.9122 40.9617 20.9122C39.6691 20.9122 38.7429 22.0991 38.7429 23.7947C38.7429 25.5 39.7123 26.6968 40.9725 26.6968C42.2327 26.6968 42.922 25.9787 42.922 24.6122V24.5524H41.5649V23.8343H43.7408V24.5124C43.7408 26.4373 42.5451 27.4052 40.9509 27.4052Z" fill="#09090A"/>
                <path d="M45.3237 27.2953V20.3139H46.1642V27.2953H45.3237Z" fill="#09090A"/>
                <path d="M51.5819 21.022H49.4708V23.625H51.4743C52.5944 23.625 53.1221 23.1961 53.1221 22.3184C53.1221 21.4608 52.5833 21.022 51.5819 21.022ZM52.1852 24.2631L53.8438 27.2953H52.8745L51.2587 24.3229H49.4708V27.2953H48.6304V20.3139H51.6143C52.9392 20.3139 53.9622 20.9421 53.9622 22.2882C53.9622 23.3757 53.2621 24.0539 52.1852 24.2631Z" fill="#09090A"/>
                <path d="M59.0671 21.022H56.956V23.625H58.9595C60.0803 23.625 60.608 23.1961 60.608 22.3184C60.608 21.4608 60.0691 21.022 59.0671 21.022ZM59.6704 24.2631L61.3293 27.2953H60.36L58.7445 24.3229H56.956V27.2953H56.1162V20.3139H59.0998C60.4248 20.3139 61.4474 20.9421 61.4474 22.2882C61.4474 23.3757 60.7473 24.0539 59.6704 24.2631Z" fill="#09090A"/>
                <path d="M66.2621 23.8944H64.3881V26.5871H66.3056C67.4368 26.5871 67.867 26.0687 67.867 25.2704C67.867 24.3927 67.2425 23.8944 66.2621 23.8944ZM66.2732 21.022H64.3881V23.1961H66.2081C67.1454 23.1961 67.5118 22.6973 67.5118 22.0893C67.5118 21.4508 67.113 21.022 66.2732 21.022ZM66.2516 27.2953H63.5483V20.3139H66.3056C67.5013 20.3139 68.3519 20.8623 68.3519 22.0594C68.3519 22.8273 67.8994 23.2759 67.2641 23.4852C67.9534 23.655 68.7075 24.1037 68.7075 25.2308C68.7075 26.6069 67.835 27.2953 66.2516 27.2953Z" fill="#09090A"/>
                <path d="M73.4682 22.5178C73.2958 22.0594 73.0805 21.4308 73.0049 21.1416C72.9294 21.4207 72.7141 22.0493 72.5312 22.5377L71.7012 24.8117H74.2975L73.4682 22.5178ZM75.2024 27.2953L74.5559 25.5199H71.4431L70.7859 27.2953H69.9248L72.5417 20.3139H73.4682L76.0854 27.2953H75.2024Z" fill="#09090A"/>
                <path d="M80.1566 27.4052C78.3148 27.4052 77.1089 25.8589 77.1089 23.8145C77.1089 21.7402 78.3687 20.2041 80.1893 20.2041C81.2234 20.2041 81.9988 20.563 82.5909 21.3212L81.9235 21.79C81.4384 21.1813 80.9859 20.9122 80.1674 20.9122C78.8748 20.9122 77.9487 22.0991 77.9487 23.7947C77.9487 25.5 78.9076 26.6968 80.1782 26.6968C80.9971 26.6968 81.5568 26.3575 82.042 25.7791L82.6236 26.2477C82.074 26.9361 81.2555 27.4052 80.1566 27.4052Z" fill="#09090A"/>
                <path d="M89.1617 27.2953V24.0041H85.4132V27.2953H84.5728V20.3139H85.4132V23.2961H89.1617V20.3139H90.0021V27.2953H89.1617Z" fill="#09090A"/>
            </g>
            <defs>
                <clipPath id="clip0_219_331">
                    <rect width="90" height="27.4547" fill="white"/>
                </clipPath>
            </defs>
        </g>
    </symbol>

    <symbol id="formlabs-icon" viewBox="0 0 100 15">
        <g>
            <g clip-path="url(#clip0_219_315)">
                <path d="M7.82049 2.34603C7.80385 2.47914 7.73729 2.56233 7.58754 2.56233C7.55427 2.56233 7.50435 2.56233 7.42115 2.54569C7.18821 2.51241 6.73896 2.42922 6.30635 2.42922C5.87373 2.42922 5.60751 2.47913 5.42448 2.62889C5.25809 2.77864 5.19154 3.02822 5.19154 3.37764V4.40925H7.48771C7.6541 4.40925 7.78721 4.52573 7.78721 4.69212V6.42257C7.78721 6.58895 7.6541 6.68879 7.48771 6.68879H5.19154V13.9267C5.19154 14.0931 5.05843 14.2096 4.8754 14.2096H2.21317C2.03014 14.2096 1.89703 14.0931 1.89703 13.9267V6.68879H0.449441C0.266413 6.68879 0.133301 6.58895 0.133301 6.42257V4.69212C0.133301 4.52573 0.266413 4.40925 0.449441 4.40925H1.89703V3.22789C1.89703 1.19794 2.96192 0.166325 5.24145 0.166325C6.72232 0.166325 7.5709 0.38263 7.85377 0.482463C8.0368 0.53238 8.08671 0.698769 8.05343 0.798602L7.82049 2.34603ZM13.1283 14.7587C8.78555 14.7587 8.23646 12.5291 8.23646 9.63388C8.23646 6.7387 8.78555 4.49245 13.1283 4.49245C17.4711 4.49245 18.0368 6.75534 18.0368 9.63388C18.0368 12.5291 17.4711 14.7587 13.1283 14.7587ZM13.1283 6.63887C11.6474 6.63887 11.5809 7.50409 11.5809 9.63388C11.5809 11.7637 11.6641 12.6122 13.1283 12.6122C14.6258 12.6122 14.6757 11.747 14.6757 9.63388C14.6757 7.48746 14.6092 6.63887 13.1283 6.63887ZM24.9087 6.83854C23.8438 6.83854 22.9286 6.95501 22.7623 6.98829V14.2096C22.7623 14.376 22.6458 14.4924 22.4628 14.4924H19.7839C19.6175 14.4924 19.4844 14.376 19.4844 14.2096V5.95667C19.4844 5.29111 20.0834 5.07481 21.1982 4.84187C22.0967 4.65884 23.3779 4.50909 24.5426 4.50909H24.8588C25.0251 4.50909 25.125 4.54236 25.1915 4.62556C25.2415 4.67547 25.2914 4.77531 25.2914 4.92506V6.43921C25.2914 6.63887 25.2914 6.83854 24.9087 6.83854ZM41.4145 14.5257H38.7356C38.5526 14.5257 38.4361 14.4093 38.4361 14.2429V7.90343C38.4361 6.92173 37.9203 6.6056 37.1882 6.6056C36.5892 6.6056 35.8737 6.73871 35.6907 6.77198V14.2429C35.6907 14.4093 35.5576 14.5257 35.3746 14.5257H32.6957C32.5127 14.5257 32.3962 14.4093 32.3962 14.2429V7.90343C32.3962 6.92173 31.9636 6.6056 31.2315 6.6056C30.6491 6.6056 29.8338 6.73871 29.6508 6.77198V14.2429C29.6508 14.4093 29.5343 14.5257 29.3513 14.5257H26.6724C26.4894 14.5257 26.3729 14.4093 26.3729 14.2429V6.00659C26.3729 5.3244 26.9553 5.10809 28.1034 4.87514C29.0351 4.69211 30.4661 4.50909 31.6474 4.50909C32.8454 4.50909 33.6441 4.79195 34.1766 5.12473C34.5426 4.99161 36.14 4.50909 37.7539 4.50909C40.1666 4.50909 41.7473 5.02489 41.7473 7.45418V14.2595C41.714 14.4093 41.5975 14.5257 41.4145 14.5257ZM47.1882 13.9766C47.1882 14.1098 47.105 14.1264 47.0385 14.1597C46.8388 14.2595 46.3729 14.376 45.6907 14.376C44.5593 14.376 43.7939 13.8435 43.7939 12.4625V0.715407C43.7939 0.565657 43.8937 0.465827 44.0268 0.432549L45.0418 0.166325C45.1749 0.133047 45.2914 0.232878 45.2914 0.382629V12.4126C45.2914 13.0781 45.7573 13.178 46.14 13.178C46.4062 13.178 46.6724 13.1447 46.8055 13.1114L46.8887 13.0948C46.9386 13.0948 47.0218 13.1114 47.0385 13.2279L47.1716 13.8602C47.1882 13.9434 47.1882 13.96 47.1882 13.9766ZM54.343 14.4758C53.7939 14.6089 52.8954 14.7587 51.8804 14.7587C50.2498 14.7587 47.5543 14.7088 47.5543 11.6805C47.5543 9.21791 48.902 9.05152 50.8155 8.75202L54.3929 8.16965V7.28779C54.3929 6.68879 54.3762 6.20626 53.7107 5.95667C53.3446 5.80692 52.8288 5.74037 51.9969 5.74037C50.5493 5.74037 49.3014 6.08979 48.5027 6.27282C48.3197 6.30609 48.2365 6.28945 48.2032 6.1397L48.0368 5.30775C48.0035 5.14137 48.1699 5.05817 48.2198 5.04153C48.8188 4.82522 50.4494 4.45917 52.1633 4.45917C53.511 4.45917 54.3762 4.6422 54.9253 4.9417C55.8904 5.44087 55.907 6.32273 55.907 7.20459V12.5457C55.907 13.8768 55.6408 14.1763 54.343 14.4758ZM54.4095 9.35102L50.7323 9.96666C49.9004 10.1164 49.1017 10.2495 49.1017 11.6139C49.1017 13.4775 50.6491 13.6106 51.897 13.6106C52.729 13.6106 53.6108 13.4941 54.4095 13.2445V9.35102ZM59.5676 4.69212C60.0834 4.54237 61.5643 4.17631 62.7623 4.17631C65.8904 4.17631 66.7722 5.75701 66.7722 9.28446C66.7722 12.9117 65.7739 14.4425 62.3463 14.4425C60.9985 14.4425 59.7839 14.2262 59.1516 14.0099C58.2032 13.6938 58.1699 13.2279 58.1699 12.5457V0.698773C58.1699 0.549022 58.2531 0.499105 58.4029 0.449189L59.4178 0.182965C59.5842 0.133048 59.6674 0.299435 59.6674 0.399269V3.6605L59.5676 4.69212ZM62.5127 5.39095C61.4811 5.39095 60.0002 5.74037 59.6674 5.8402V12.945C59.8671 13.0116 60.8821 13.2778 62.313 13.2778C64.4927 13.2778 65.2248 12.2795 65.2248 9.33438C65.2248 6.32273 64.6924 5.39095 62.5127 5.39095ZM71.0318 14.7587C69.3679 14.7587 67.937 14.2595 67.6874 14.1597C67.5875 14.1264 67.5044 14.0598 67.5543 13.8602L67.7207 13.1447C67.7539 13.0116 67.8205 12.8951 68.0202 12.9783C68.0701 12.9949 69.4511 13.5108 71.0651 13.5108C72.6624 13.5108 73.5942 13.0116 73.5942 11.8635C73.5942 10.3161 72.3796 10.366 70.9153 10.1497C69.9836 9.99994 67.6208 9.83354 67.6208 7.37098C67.6208 4.95834 69.8005 4.45917 71.4478 4.45917C73.0784 4.45917 74.343 4.79195 74.5426 4.85851C74.6757 4.89178 74.7257 4.97498 74.709 5.07481L74.5759 5.90676C74.5593 6.02323 74.4927 6.05651 74.3762 6.05651C74.11 6.02323 72.7123 5.70709 71.5975 5.70709C70.2331 5.70709 69.1017 6.07315 69.1017 7.25451C69.1017 8.51907 70.3829 8.66882 71.5643 8.81857C73.2614 9.03488 75.0917 9.16799 75.0917 11.7137C75.1083 14.1597 73.2115 14.7587 71.0318 14.7587ZM99.9503 2.42922C99.734 3.1447 99.2348 3.71042 98.8355 4.32606C97.8371 5.8402 96.8222 7.35434 95.8238 8.86849C95.8072 8.90176 95.7906 8.93504 95.7573 8.98496C96.09 9.21791 96.4228 9.41757 96.739 9.66716C96.8721 9.76699 97.0052 9.9001 97.0884 10.0332C97.288 10.3993 97.1716 10.8152 96.8388 11.0815C95.6907 12.0299 94.526 12.945 93.3945 13.9101C92.7955 14.4259 92.0801 14.1264 91.8638 13.5108C91.0484 11.1147 90.2165 8.71874 89.3846 6.32273C89.3679 6.28945 89.3513 6.23954 89.318 6.15634C89.2514 6.32273 89.2015 6.47248 89.1516 6.6056C88.3696 8.86849 87.5875 11.1314 86.8222 13.3943C86.7889 13.4775 86.7722 13.5607 86.739 13.6272C86.5227 14.1929 85.8405 14.3926 85.3746 14.0099C84.9087 13.6272 84.4428 13.2445 83.9603 12.8618C83.2614 12.2961 82.5792 11.7137 81.8804 11.1647C81.3147 10.7154 81.3313 10.0831 81.947 9.66716C82.2964 9.43421 82.6291 9.20127 82.9952 8.96832C82.8621 8.76865 82.729 8.58563 82.6125 8.38596C81.4145 6.63887 80.2165 4.87514 79.0185 3.12805C78.5859 2.49577 78.7356 1.46416 79.501 1.09811C79.917 0.8818 80.3163 0.632215 80.7157 0.415909C81.1816 0.166325 81.6641 0.166326 82.13 0.432549C84.4761 1.81358 86.8055 3.19461 89.1516 4.59228C89.2847 4.67548 89.3846 4.67548 89.5343 4.59228C91.8638 3.19461 94.1766 1.81358 96.506 0.432549C97.0052 0.133048 97.5044 0.133047 98.0035 0.415909C98.3862 0.632215 98.7689 0.865159 99.1683 1.06483C99.5842 1.28113 99.7673 1.63055 99.917 2.02989C99.9336 2.06317 99.9336 2.11308 99.9503 2.163C99.9503 2.22955 99.9503 2.32939 99.9503 2.42922ZM98.6525 2.99494C98.6525 2.9783 98.6358 2.9783 98.6358 2.96166C95.8904 3.76033 93.145 4.55901 90.3662 5.35767C91.9469 6.40593 93.4777 7.43754 95.0418 8.46915C96.2564 6.63887 97.4544 4.82523 98.6525 2.99494ZM88.3529 5.35767C85.5909 4.55901 82.8787 3.76033 80.1666 2.9783C80.1666 2.99494 80.1499 2.99494 80.1499 3.01158C81.3812 4.80859 82.5959 6.60559 83.8438 8.4026C85.3413 7.38762 86.8388 6.38929 88.3529 5.35767ZM85.9736 13.2112C86.5726 11.4309 87.1716 9.6838 87.7706 7.93671C87.704 7.95335 87.6707 8.00326 87.6541 8.03654C87.0717 8.83521 86.4894 9.63388 85.9237 10.4326C85.8405 10.549 85.7739 10.6489 85.6907 10.7487C85.3247 11.1979 84.6258 11.1813 84.293 10.7154C84.0601 10.3826 83.8438 10.0499 83.5942 9.70043C83.2448 9.93338 82.8954 10.1663 82.546 10.3993C83.694 11.3477 84.8255 12.2628 85.9736 13.2112ZM79.917 1.93005C81.897 2.51242 83.8272 3.07814 85.7573 3.64386C85.7406 3.59394 85.7074 3.56067 85.6907 3.54403C84.3596 2.762 83.0285 1.96333 81.6974 1.1813C81.5476 1.09811 81.3812 1.09811 81.2315 1.1813C80.9153 1.36433 80.5992 1.53072 80.2997 1.71374C80.1832 1.7803 80.0667 1.84686 79.917 1.93005ZM86.8721 7.53737C86.8554 7.52073 86.8554 7.52074 86.8388 7.5041C86.0235 8.05318 85.2082 8.61891 84.3762 9.16799C84.5925 9.48413 84.8088 9.78363 85.0252 10.0998C85.6408 9.23455 86.2564 8.38596 86.8721 7.53737Z" fill="black"/>
            </g>
            <defs>
                <clipPath id="clip0_219_315">
                    <rect width="100" height="14.8087" fill="white"/>
                </clipPath>
            </defs>
        </g>
    </symbol>

    <symbol id="check-icon" viewBox="0 0 24 24">
        <g>
            <path d="M16.2806 9.21937C16.3504 9.28903 16.4057 9.37175 16.4434 9.46279C16.4812 9.55384 16.5006 9.65144 16.5006 9.75C16.5006 9.84856 16.4812 9.94616 16.4434 10.0372C16.4057 10.1283 16.3504 10.211 16.2806 10.2806L11.0306 15.5306C10.961 15.6004 10.8783 15.6557 10.7872 15.6934C10.6962 15.7312 10.5986 15.7506 10.5 15.7506C10.4014 15.7506 10.3038 15.7312 10.2128 15.6934C10.1218 15.6557 10.039 15.6004 9.96938 15.5306L7.71938 13.2806C7.57865 13.1399 7.49959 12.949 7.49959 12.75C7.49959 12.551 7.57865 12.3601 7.71938 12.2194C7.86011 12.0786 8.05098 11.9996 8.25 11.9996C8.44903 11.9996 8.6399 12.0786 8.78063 12.2194L10.5 13.9397L15.2194 9.21937C15.289 9.14964 15.3718 9.09432 15.4628 9.05658C15.5538 9.01884 15.6514 8.99941 15.75 8.99941C15.8486 8.99941 15.9462 9.01884 16.0372 9.05658C16.1283 9.09432 16.211 9.14964 16.2806 9.21937ZM21.75 12C21.75 13.9284 21.1782 15.8134 20.1068 17.4168C19.0355 19.0202 17.5127 20.2699 15.7312 21.0078C13.9496 21.7458 11.9892 21.9389 10.0979 21.5627C8.20656 21.1865 6.46928 20.2579 5.10571 18.8943C3.74215 17.5307 2.81355 15.7934 2.43735 13.9021C2.06114 12.0108 2.25422 10.0504 2.99218 8.26884C3.73013 6.48726 4.97982 4.96451 6.58319 3.89317C8.18657 2.82183 10.0716 2.25 12 2.25C14.585 2.25273 17.0634 3.28084 18.8913 5.10872C20.7192 6.93661 21.7473 9.41498 21.75 12ZM20.25 12C20.25 10.3683 19.7661 8.77325 18.8596 7.41655C17.9531 6.05984 16.6646 5.00242 15.1571 4.37799C13.6497 3.75357 11.9909 3.59019 10.3905 3.90852C8.79017 4.22685 7.32016 5.01259 6.16637 6.16637C5.01259 7.32015 4.22685 8.79016 3.90853 10.3905C3.5902 11.9908 3.75358 13.6496 4.378 15.1571C5.00242 16.6646 6.05984 17.9531 7.41655 18.8596C8.77326 19.7661 10.3683 20.25 12 20.25C14.1873 20.2475 16.2843 19.3775 17.8309 17.8309C19.3775 16.2843 20.2475 14.1873 20.25 12Z" />
        </g>
    </symbol>

    <symbol id="target-icon" viewBox="0 0 24 24">
        <g>
            <path d="M20.8004 7.79614C21.8412 9.97282 22.0387 12.4579 21.355 14.7717C20.6713 17.0855 19.1547 19.064 17.098 20.3253C15.0413 21.5867 12.5902 22.0416 10.2179 21.602C7.84557 21.1625 5.72013 19.8598 4.25179 17.9454C2.78344 16.0309 2.0763 13.6405 2.26682 11.2353C2.45735 8.83012 3.53204 6.58078 5.28348 4.92139C7.03492 3.26199 9.33895 2.31018 11.7509 2.24966C14.1628 2.18913 16.5117 3.02418 18.3442 4.59363L20.4695 2.46738C20.6102 2.32665 20.8011 2.24759 21.0001 2.24759C21.1991 2.24759 21.39 2.32665 21.5307 2.46738C21.6715 2.60812 21.7505 2.79899 21.7505 2.99801C21.7505 3.19703 21.6715 3.3879 21.5307 3.52863L12.5307 12.5286C12.39 12.6694 12.1991 12.7484 12.0001 12.7484C11.8011 12.7484 11.6102 12.6694 11.4695 12.5286C11.3288 12.3879 11.2497 12.197 11.2497 11.998C11.2497 11.799 11.3288 11.6081 11.4695 11.4674L14.0682 8.86864C13.3639 8.40284 12.5231 8.18838 11.6817 8.25996C10.8404 8.33154 10.0478 8.68498 9.43231 9.26306C8.81683 9.84114 8.41446 10.61 8.29034 11.4452C8.16622 12.2805 8.32762 13.1331 8.7484 13.8652C9.16919 14.5973 9.82473 15.1659 10.6089 15.4791C11.3931 15.7922 12.26 15.8315 13.0693 15.5907C13.8786 15.3498 14.5829 14.8428 15.0683 14.1519C15.5536 13.4609 15.7915 12.6263 15.7435 11.7833C15.738 11.6848 15.7519 11.5862 15.7845 11.4931C15.8171 11.4 15.8677 11.3142 15.9334 11.2406C15.9991 11.1671 16.0787 11.1072 16.1676 11.0644C16.2564 11.0216 16.3529 10.9967 16.4514 10.9911C16.6503 10.9799 16.8455 11.0482 16.994 11.181C17.0676 11.2467 17.1275 11.3263 17.1703 11.4151C17.2131 11.504 17.238 11.6005 17.2435 11.6989C17.3119 12.8922 16.9711 14.073 16.2774 15.0463C15.5838 16.0196 14.5788 16.7271 13.4285 17.0518C12.2783 17.3765 11.0517 17.2991 9.95148 16.8322C8.85123 16.3654 7.94322 15.5371 7.3775 14.4843C6.81178 13.4315 6.62223 12.2171 6.84017 11.042C7.05811 9.86682 7.67049 8.80121 8.57611 8.02125C9.48173 7.2413 10.6264 6.7937 11.8208 6.75243C13.0153 6.71115 14.1881 7.07868 15.1454 7.79426L17.2782 5.66145C15.7152 4.36376 13.7279 3.68929 11.6979 3.76758C9.66793 3.84587 7.73844 4.67141 6.28003 6.08563C4.82163 7.49986 3.93715 9.40304 3.79646 11.4297C3.65578 13.4563 4.26881 15.4634 5.51782 17.0656C6.76683 18.6678 8.56375 19.752 10.5634 20.11C12.5631 20.468 14.6246 20.0746 16.3519 19.0053C18.0792 17.9361 19.3506 16.2663 19.9218 14.3168C20.493 12.3672 20.3238 10.2754 19.4467 8.44301C19.3609 8.26349 19.3499 8.05725 19.4162 7.86965C19.4825 7.68206 19.6206 7.52848 19.8001 7.4427C19.9796 7.35692 20.1859 7.34596 20.3735 7.41224C20.5611 7.47853 20.7146 7.61662 20.8004 7.79614Z" />
        </g>
    </symbol>

    <symbol id="home-icon" viewBox="0 0 24 24">
        <g>
            <path d="M20.5603 10.1887L13.0603 2.68875C12.779 2.40766 12.3977 2.24976 12 2.24976C11.6024 2.24976 11.221 2.40766 10.9397 2.68875L3.4397 10.1887C3.29973 10.3277 3.18878 10.493 3.1133 10.6752C3.03782 10.8574 2.99931 11.0528 3.00001 11.25V20.25C3.00001 20.4489 3.07903 20.6397 3.21968 20.7803C3.36033 20.921 3.5511 21 3.75001 21H9.75001C9.94892 21 10.1397 20.921 10.2803 20.7803C10.421 20.6397 10.5 20.4489 10.5 20.25V15H13.5V20.25C13.5 20.4489 13.579 20.6397 13.7197 20.7803C13.8603 20.921 14.0511 21 14.25 21H20.25C20.4489 21 20.6397 20.921 20.7803 20.7803C20.921 20.6397 21 20.4489 21 20.25V11.25C21.0007 11.0528 20.9622 10.8574 20.8867 10.6752C20.8112 10.493 20.7003 10.3277 20.5603 10.1887ZM19.5 19.5H15V14.25C15 14.0511 14.921 13.8603 14.7803 13.7197C14.6397 13.579 14.4489 13.5 14.25 13.5H9.75001C9.5511 13.5 9.36033 13.579 9.21968 13.7197C9.07903 13.8603 9.00001 14.0511 9.00001 14.25V19.5H4.50001V11.25L12 3.75L19.5 11.25V19.5Z" />
        </g>
    </symbol>

    <symbol id="arrow-right-icon" viewBox="0 0 24 24">
        <g>
            <path d="M17.0306 12.5306L9.53055 20.0306C9.46087 20.1002 9.37815 20.1555 9.2871 20.1932C9.19606 20.2309 9.09847 20.2503 8.99993 20.2503C8.90138 20.2503 8.8038 20.2309 8.71276 20.1932C8.62171 20.1555 8.53899 20.1002 8.4693 20.0306C8.39962 19.9609 8.34435 19.8781 8.30663 19.7871C8.26892 19.6961 8.24951 19.5985 8.24951 19.4999C8.24951 19.4014 8.26892 19.3038 8.30663 19.2128C8.34435 19.1217 8.39962 19.039 8.4693 18.9693L15.4396 11.9999L8.4693 5.03055C8.32857 4.88982 8.24951 4.69895 8.24951 4.49993C8.24951 4.30091 8.32857 4.11003 8.4693 3.9693C8.61003 3.82857 8.80091 3.74951 8.99993 3.74951C9.19895 3.74951 9.38982 3.82857 9.53055 3.9693L17.0306 11.4693C17.1003 11.539 17.1556 11.6217 17.1933 11.7127C17.2311 11.8038 17.2505 11.9014 17.2505 11.9999C17.2505 12.0985 17.2311 12.1961 17.1933 12.2871C17.1556 12.3782 17.1003 12.4609 17.0306 12.5306Z" />
        </g>
    </symbol>
</svg>